<?xml version="1.0" encoding="UTF-8" standalone="no"?>
<!-- Created with Inkscape (http://www.inkscape.org/) -->

<svg
   xmlns:osb="http://www.openswatchbook.org/uri/2009/osb"
   xmlns:dc="http://purl.org/dc/elements/1.1/"
   xmlns:cc="http://creativecommons.org/ns#"
   xmlns:rdf="http://www.w3.org/1999/02/22-rdf-syntax-ns#"
   xmlns:svg="http://www.w3.org/2000/svg"
   xmlns="http://www.w3.org/2000/svg"
   xmlns:sodipodi="http://sodipodi.sourceforge.net/DTD/sodipodi-0.dtd"
   xmlns:inkscape="http://www.inkscape.org/namespaces/inkscape"
   width="512"
   height="512"
   id="svg5286"
   version="1.1"
   inkscape:version="0.48.5 r10040"
   inkscape:export-filename="/home/judgedreads/cover_browser/ricochet.png"
   inkscape:export-xdpi="90"
   inkscape:export-ydpi="90"
   sodipodi:docname="ric2.svg">
  <defs
     id="defs5288">
    <linearGradient
       id="linearGradient6020">
      <stop
         style="stop-color:#c8c8c8;stop-opacity:1;"
         offset="0"
         id="stop6022" />
      <stop
         style="stop-color:#969696;stop-opacity:0;"
         offset="1"
         id="stop6024" />
    </linearGradient>
    <linearGradient
       id="linearGradient5855"
       osb:paint="solid">
      <stop
         style="stop-color:#646464;stop-opacity:1;"
         offset="0"
         id="stop5857" />
    </linearGradient>
    <linearGradient
       id="linearGradient5808">
      <stop
         style="stop-color:#646464;stop-opacity:0.24705882;"
         offset="0"
         id="stop5824" />
      <stop
         style="stop-color:#ff0000;stop-opacity:0;"
         offset="1"
         id="stop5812" />
    </linearGradient>
    <filter
       inkscape:collect="always"
       id="filter6142"
       x="-0.20944459"
       width="1.4188892"
       y="-0.084089196"
       height="1.1681784">
      <feGaussianBlur
         inkscape:collect="always"
         stdDeviation="3.8418256"
         id="feGaussianBlur6144" />
    </filter>
    <filter
       inkscape:collect="always"
       id="filter6146"
       x="-0.17632246"
       width="1.3526449"
       y="-0.090948453"
       height="1.1818969">
      <feGaussianBlur
         inkscape:collect="always"
         stdDeviation="4.129893"
         id="feGaussianBlur6148" />
    </filter>
    <filter
       inkscape:collect="always"
       id="filter6150"
       x="-0.12850418"
       width="1.2570084"
       y="-0.11255154"
       height="1.2251031">
      <feGaussianBlur
         inkscape:collect="always"
         stdDeviation="5.0171093"
         id="feGaussianBlur6152" />
    </filter>
    <filter
       inkscape:collect="always"
       id="filter6154"
       x="-0.10757103"
       width="1.2151421"
       y="-0.13567631"
       height="1.2713526">
      <feGaussianBlur
         inkscape:collect="always"
         stdDeviation="4.9347551"
         id="feGaussianBlur6156" />
    </filter>
    <filter
       inkscape:collect="always"
       id="filter6170"
       x="-0.099169345"
       width="1.1983387"
       y="-0.15190861"
       height="1.3038172">
      <feGaussianBlur
         inkscape:collect="always"
         stdDeviation="4.5908081"
         id="feGaussianBlur6172" />
    </filter>
    <filter
       inkscape:collect="always"
       id="filter6174"
       x="-0.11830427"
       width="1.2366085"
       y="-0.12174505"
       height="1.2434901">
      <feGaussianBlur
         inkscape:collect="always"
         stdDeviation="5.0890232"
         id="feGaussianBlur6176" />
    </filter>
    <filter
       inkscape:collect="always"
       id="filter6178"
       x="-0.14831428"
       width="1.2966286"
       y="-0.10076351"
       height="1.201527">
      <feGaussianBlur
         inkscape:collect="always"
         stdDeviation="4.5344049"
         id="feGaussianBlur6180" />
    </filter>
    <filter
       inkscape:collect="always"
       id="filter6182"
       x="-0.16804348"
       width="1.336087"
       y="-0.093319918"
       height="1.1866398">
      <feGaussianBlur
         inkscape:collect="always"
         stdDeviation="4.1409802"
         id="feGaussianBlur6184" />
    </filter>
    <filter
       inkscape:collect="always"
       id="filter6238">
      <feGaussianBlur
         inkscape:collect="always"
         stdDeviation="2.6949058"
         id="feGaussianBlur6240" />
    </filter>
    <filter
       inkscape:collect="always"
       id="filter6242">
      <feGaussianBlur
         inkscape:collect="always"
         stdDeviation="2.3966279"
         id="feGaussianBlur6244" />
    </filter>
    <filter
       inkscape:collect="always"
       id="filter6246">
      <feGaussianBlur
         inkscape:collect="always"
         stdDeviation="2.7112972"
         id="feGaussianBlur6248" />
    </filter>
  </defs>
  <sodipodi:namedview
     id="base"
     pagecolor="#ffffff"
     bordercolor="#666666"
     borderopacity="1.0"
     inkscape:pageopacity="0"
     inkscape:pageshadow="2"
     inkscape:zoom="0.7"
     inkscape:cx="308.83046"
     inkscape:cy="296.97982"
     inkscape:document-units="px"
     inkscape:current-layer="layer1"
     showgrid="false"
     inkscape:window-width="1471"
     inkscape:window-height="970"
     inkscape:window-x="359"
     inkscape:window-y="114"
     inkscape:window-maximized="0" />
  <metadata
     id="metadata5291">
    <rdf:RDF>
      <cc:Work
         rdf:about="">
        <dc:format>image/svg+xml</dc:format>
        <dc:type
           rdf:resource="http://purl.org/dc/dcmitype/StillImage" />
        <dc:title></dc:title>
      </cc:Work>
    </rdf:RDF>
  </metadata>
  <g
     inkscape:label="Layer 1"
     inkscape:groupmode="layer"
     id="layer1"
     transform="translate(0,-540.36218)">
    <path
       sodipodi:type="arc"
       style="fill:none;stroke:#fafafa;stroke-width:110.10038412000000108;stroke-miterlimit:4;stroke-opacity:1;stroke-dasharray:none;"
       id="path5836"
       sodipodi:cx="261.78571"
       sodipodi:cy="195.57143"
       sodipodi:rx="111.78571"
       sodipodi:ry="105.71429"
       d="m 373.57142,195.57143 a 111.78571,105.71429 0 1 1 -223.57143,0 111.78571,105.71429 0 1 1 223.57143,0 z"
       transform="matrix(0.98702052,0,0,1.0388303,-91.011695,503.85492)" />
    <path
       sodipodi:type="arc"
       style="fill:none;stroke:#646464;stroke-width:89.87941741999999579;stroke-miterlimit:4;stroke-opacity:0.47348483000000002;stroke-dasharray:none;opacity:1"
       id="path5919"
       sodipodi:cx="296.42856"
       sodipodi:cy="297"
       sodipodi:rx="132.85715"
       sodipodi:ry="114.28571"
       d="m 429.28571,297 a 132.85715,114.28571 0 1 1 -265.7143,0 132.85715,114.28571 0 1 1 265.7143,0 z"
       transform="matrix(0.30246406,0,0,0.35197672,77.987659,602.47402)" />
    <path
       style="fill:#ffff00;stroke:#000000;stroke-width:1px;stroke-linecap:butt;stroke-linejoin:miter;stroke-opacity:1;fill-opacity:1"
       d="m 512.14286,177 -38.57143,-60.71429 12.14286,70 -98.57143,-27.14285 75,78.57143 L 385,264.14286 l 72.14286,7.14285 -54.28572,60 L 491.42857,292 l -22.85714,65 44.28571,-42.85714 z"
       id="path5939"
       inkscape:connector-curvature="0"
       transform="translate(0,540.36218)" />
    <path
       style="fill:#ff0000;stroke:#000000;stroke-width:1px;stroke-linecap:butt;stroke-linejoin:miter;stroke-opacity:1;fill-opacity:1"
       d="M 433.57143,317.71429 212.5,512 l 30,0.35714 230.71429,-170 17.85714,-50.17857 z"
       id="path5953"
       inkscape:connector-curvature="0"
       transform="translate(0,540.36218)" />
    <path
       style="fill:#ff0000;fill-opacity:1;stroke:#000000;stroke-width:1px;stroke-linecap:butt;stroke-linejoin:miter;stroke-opacity:1"
       d="m 336.50335,162.94153 93.82163,41.46702 31.31473,32.82996 L 308.92857,257 c 0,0 18.21429,-27.5 22.5,-51.78571 4.28572,-24.28571 4.36051,-42.6299 4.36051,-42.6299 z"
       id="path5957"
       inkscape:connector-curvature="0"
       transform="translate(0,540.36218)"
       sodipodi:nodetypes="ccccscc" />
    <path
       style="fill:#fa0000;fill-opacity:0.11764706;stroke:#969696;stroke-width:0;stroke-miterlimit:4;stroke-opacity:1;stroke-dasharray:none;filter:url(#filter6182)"
       d="m 156.70788,763.13278 c 4.05869,0.62838 20.92059,0.19629 25.01067,-0.64091 0.94784,-0.19402 1.74685,-0.27061 1.77557,-0.17012 0.0287,0.10049 7.06109,22.68175 15.62752,50.18066 10.33282,33.1692 15.50084,50.06986 15.35407,50.21146 -0.38462,0.37105 -16.62719,3.55632 -20.82429,4.08376 -6.22808,0.78267 -22.45525,2.17038 -22.86244,1.95514 -0.0388,-0.0206 -3.48532,-23.51503 -7.65887,-52.21 -4.17357,-28.69499 -7.65062,-52.47894 -7.72681,-52.85324 -0.15761,-0.7738 -0.14152,-0.78065 1.30458,-0.55675 z"
       id="path6000-5"
       inkscape:connector-curvature="0" />
    <path
       style="fill:#b4b4b4;fill-opacity:0.11764706000000000;stroke:#969696;stroke-width:0;stroke-miterlimit:4;stroke-opacity:1;stroke-dasharray:none;"
       d="m 133.71407,755.0904 c 7.03129,3.20093 14.08427,5.95095 17.98948,7.01425 l 2.44183,0.66486 0.0995,1.1806 c 0.0547,0.64933 3.50201,24.43782 7.66063,52.86331 4.15863,28.42548 7.51298,51.77185 7.45412,51.8808 -0.11065,0.20485 -7.35366,0.73152 -11.19412,0.81399 -5.16267,0.11083 -12.10474,-0.69288 -19.67035,-2.27737 -6.83557,-1.43157 -19.59761,-5.09274 -28.20714,-8.09206 -5.11708,-1.78265 -10.467603,-3.87584 -10.401973,-4.06938 0.0342,-0.1007 6.997093,-22.83032 15.473223,-50.5103 8.47611,-27.67997 15.46583,-50.41067 15.5327,-50.51265 0.0669,-0.102 1.33682,0.36781 2.82208,1.04395 z"
       id="path6018-3"
       inkscape:connector-curvature="0" />
    <path
       style="fill:#fafa00;fill-opacity:0.11764706;stroke:#969696;stroke-width:0;stroke-miterlimit:4;stroke-opacity:1;stroke-dasharray:none;filter:url(#filter6178)"
       d="m 201.71231,754.64776 c 0.39342,0.55746 13.27028,20.05072 28.61525,43.31835 l 27.89995,42.30478 -4.32998,2.96738 c -11.90303,8.15723 -20.39282,12.75593 -30.08261,16.29496 -5.28993,1.93207 -7.84908,2.59894 -7.95664,2.07339 -0.18049,-0.88174 -30.29843,-97.52568 -30.74718,-98.66303 -0.47635,-1.20735 -0.39053,-1.33792 1.07796,-1.6397 1.98823,-0.40901 9.27919,-4.03367 12.19317,-6.0625 2.66728,-1.85707 2.46402,-1.82084 3.33008,-0.59366 l 0,0 z"
       id="path6052-6"
       inkscape:connector-curvature="0" />
    <path
       style="fill:#00fa00;fill-opacity:0.11764706;stroke:#969696;stroke-width:0;stroke-miterlimit:4;stroke-opacity:1;stroke-dasharray:none;filter:url(#filter6174)"
       d="m 260.99554,764.1591 44.68728,25.51661 -1.54534,2.89045 c -5.82226,10.89016 -15.4132,22.26468 -28.6057,33.92542 -5.83591,5.15832 -15.68556,12.80109 -16.12421,12.51149 -0.39043,-0.25775 -57.10992,-86.31925 -56.96382,-86.43222 0.0559,-0.0433 1.86493,-1.32249 4.01986,-2.84264 3.17504,-2.23978 4.43641,-3.54405 6.65151,-6.87777 1.50339,-2.26263 2.83689,-4.13503 2.96331,-4.16091 0.12642,-0.0259 20.33911,11.43544 44.91711,25.46957 l 0,0 z"
       id="path6054-7"
       inkscape:connector-curvature="0" />
    <path
       style="fill:#0000fa;fill-opacity:0.11764706;stroke:#969696;stroke-width:0;stroke-miterlimit:4;stroke-opacity:1;stroke-dasharray:none;filter:url(#filter6170)"
       d="m 275.38215,722.97274 c 27.19522,4.03 50.1059,7.42397 50.9126,7.54213 l 1.46675,0.21485 -0.53618,3.35702 c -1.1586,7.25395 -4.66323,18.50555 -9.2819,29.79955 -2.54083,6.21303 -8.59862,19.15052 -10.38585,22.18079 l -1.28568,2.17992 -44.80632,-25.63419 -44.80634,-25.63419 1.77351,-3.56251 c 2.29246,-4.60495 4.05435,-9.24484 5.27852,-13.90083 0.53884,-2.04937 1.2599,-3.75847 1.60236,-3.79798 0.34247,-0.0394 22.8733,3.22544 50.06853,7.25544 z"
       id="path6056-3"
       inkscape:connector-curvature="0" />
    <path
       style="fill:#b4b4b4;fill-opacity:0.11764706000000000;stroke:#969696;stroke-width:0;stroke-miterlimit:4;stroke-opacity:1;stroke-dasharray:none;filter:url(#filter6246)"
       d="m 308.01121,628.47958 c 6.01265,11.65198 12.36991,26.44089 15.37524,35.76753 4.16692,12.93144 6.18432,29.42535 5.60326,45.81142 -0.20838,5.87582 -1.01858,18.69042 -1.19611,18.91797 -0.0624,0.08 -23.21603,-3.2485 -51.45251,-7.39658 l -51.33907,-7.542 0.0902,-2.91242 c 0.18274,-5.89922 -2.78976,-20.45074 -6.81813,-33.37711 -0.23441,-0.75224 6.28987,-5.00155 42.38002,-27.60243 23.4614,-14.69231 43.02314,-26.91769 43.47054,-27.16749 0.69511,-0.38812 1.26047,0.41213 3.88649,5.50112 l 0,0 z"
       id="path6058-3"
       inkscape:connector-curvature="0" />
    <path
       style="fill:#fa0000;fill-opacity:0.11764706;stroke:#969696;stroke-width:0;stroke-miterlimit:4;stroke-opacity:1;stroke-dasharray:none;filter:url(#filter6142)"
       d="m 188.8621,653.61209 c -3.85023,-1.42952 -20.45626,-4.38758 -24.63114,-4.38758 -0.9675,0 -1.76563,-0.0852 -1.77362,-0.1894 -0.008,-0.10417 -2.36921,-23.637 -5.24717,-52.29518 -3.4714,-34.5675 -5.14529,-52.16122 -4.97311,-52.27051 0.45123,-0.28639 17.00261,-0.14977 21.22022,0.17516 6.25852,0.48217 22.43435,2.37674 22.79011,2.66926 0.0339,0.0279 -1.30103,23.73629 -2.96656,52.68532 -1.66553,28.94904 -3.02858,52.94713 -3.029,53.3291 -7.6e-4,0.78969 -0.0179,0.79317 -1.38973,0.28383 z"
       id="path6000-4"
       inkscape:connector-curvature="0" />
    <path
       style="fill:#b4b4b4;fill-opacity:0.11764706000000000;stroke:#969696;stroke-width:0;stroke-miterlimit:4;stroke-opacity:1;stroke-dasharray:none;opacity:0.99999998999999995;filter:url(#filter6242)"
       d="m 209.77606,666.10213 c -6.24656,-4.54591 -12.6048,-8.65443 -16.21746,-10.47926 l -2.2589,-1.14102 0.13926,-1.17658 c 0.0766,-0.64711 1.46972,-24.64368 3.09584,-53.3257 1.62611,-28.68202 3.02163,-52.2268 3.10114,-52.32174 0.14948,-0.1785 7.35098,0.75799 11.12997,1.44735 5.08002,0.9267 11.71991,3.10621 18.81409,6.17566 6.40964,2.77326 18.17826,8.91928 26.01143,13.58417 4.65566,2.77259 9.47774,5.89622 9.37463,6.07266 -0.0537,0.0918 -11.43321,20.96341 -25.28792,46.38138 -13.8547,25.41796 -25.2607,46.28525 -25.34667,46.37175 -0.086,0.0865 -1.2359,-0.62841 -2.55541,-1.58867 z"
       id="path6018-6"
       inkscape:connector-curvature="0" />
    <path
       style="fill:#fafa00;fill-opacity:0.11764706;stroke:#969696;stroke-width:0;stroke-miterlimit:4;stroke-opacity:1;stroke-dasharray:none;filter:url(#filter6146)"
       d="m 143.07032,652.89985 c -0.27363,-0.62503 -8.97987,-22.30456 -19.3472,-48.17673 l -18.84968,-47.04032 4.83708,-2.03879 c 13.29704,-5.60457 22.53657,-8.40737 32.73922,-9.93139 5.56992,-0.83201 8.21081,-0.97214 8.21081,-0.43569 0,0.90002 10.1258,101.62047 10.33735,102.8247 0.22457,1.27836 0.1143,1.38906 -1.38487,1.39023 -2.02987,0.002 -9.89959,2.09095 -13.16123,3.49422 -2.9855,1.28446 -2.77911,1.28973 -3.38148,-0.0862 l 0,0 z"
       id="path6052-1"
       inkscape:connector-curvature="0" />
    <path
       style="fill:#00fa00;fill-opacity:0.11764706;stroke:#969696;stroke-width:0;stroke-miterlimit:4;stroke-opacity:1;stroke-dasharray:none;filter:url(#filter6150)"
       d="m 86.898659,631.69344 -38.66259,-33.95958 2.09357,-2.52184 c 7.88784,-9.50139 19.56493,-18.72156 34.82781,-27.49989 6.7518,-3.88324 17.933991,-9.39558 18.305661,-9.0239 0.33081,0.33081 38.63993,96.01829 38.47414,96.09966 -0.0635,0.0312 -2.09225,0.92165 -4.50825,1.97879 -3.5597,1.55758 -5.05699,2.58241 -7.89562,5.40421 -1.92659,1.91518 -3.60848,3.48214 -3.73751,3.48214 -0.12904,0 -17.63278,-15.28182 -38.897211,-33.95959 l 0,0 z"
       id="path6054-2"
       inkscape:connector-curvature="0" />
    <path
       style="fill:#0000fa;fill-opacity:0.11764706;stroke:#969696;stroke-width:0;stroke-miterlimit:4;stroke-opacity:1;stroke-dasharray:none;filter:url(#filter6154)"
       d="m 64.545049,669.15818 c -25.83465,-9.40169 -47.59933,-17.32107 -48.36596,-17.59861 l -1.39386,-0.50462 1.19848,-3.1813 c 2.58972,-6.87426 8.27949,-17.19452 15.06917,-27.3329 3.73513,-5.5773 12.26426,-17.0372 14.62286,-19.64752 l 1.69672,-1.87781 38.75565,34.09865 38.755651,34.09865 -2.45188,3.1345 c -3.16934,4.05169 -5.82589,8.24401 -7.95888,12.55994 -0.93886,1.89969 -1.988,3.42947 -2.33144,3.3995 -0.34343,-0.03 -21.761861,-7.74678 -47.596511,-17.14848 z"
       id="path6056-0"
       inkscape:connector-curvature="0" />
    <path
       style="fill:#b4b4b4;fill-opacity:0.11764706000000000;stroke:#969696;stroke-width:0;stroke-miterlimit:4;stroke-opacity:1;stroke-dasharray:none;filter:url(#filter6238)"
       d="m 13.629739,755.18866 c -3.5539,-12.62103 -6.8163501,-28.38437 -7.8903301,-38.12422 -1.4891,-13.50437 -0.15793,-30.06779 3.69728,-46.00449 1.3824301,-5.71468 4.7459501,-18.1065 4.9655101,-18.29383 0.0772,-0.0658 22.093,7.8381 48.92408,17.56429 l 48.783781,17.684 -0.67244,2.83517 c -1.36203,5.74274 -1.36797,20.59475 -0.0136,34.06638 0.0788,0.78396 -7.16508,3.63862 -47.054351,18.54311 -25.93113,9.68907 -47.54711,17.74333 -48.03551,17.89834 -0.75881,0.24084 -1.15222,-0.65653 -2.70439,-6.16875 l 0,0 z"
       id="path6058-6"
       inkscape:connector-curvature="0" />
  </g>
</svg>
